<svg width="24" height="24" viewBox="0 0 24 24" fill="none" xmlns="http://www.w3.org/2000/svg">
  <path d="M12 2H8.5C6.567 2 5 3.567 5 5.5C5 7.433 6.567 9 8.5 9H12V2Z" fill="#F24E1E"/>
  <path d="M12 9H8.5C6.567 9 5 10.567 5 12.5C5 14.433 6.567 16 8.5 16H12V9Z" fill="#A259FF"/>
  <path d="M12 16H8.5C6.567 16 5 17.567 5 19.5C5 21.433 6.567 23 8.5 23C10.433 23 12 21.433 12 19.5V16Z" fill="#0ACF83"/>
  <path d="M19 2H15.5V9H19C20.933 9 22.5 7.433 22.5 5.5C22.5 3.567 20.933 2 19 2Z" fill="#FF7262"/>
  <path d="M22.5 12.5C22.5 10.567 20.933 9 19 9H15.5V16H19C20.933 16 22.5 14.433 22.5 12.5Z" fill="#1ABCFE"/>
</svg> 